<svg xmlns="http://www.w3.org/2000/svg" viewBox="0 0 1000 1000" role="img" aria-label="DAMIAO DM-J4310-2EC — 10:1 MIT-mode joint module with dual encoders" preserveAspectRatio="xMidYMid meet"><title>DAMIAO DM-J4310-2EC — 10:1 MIT-mode joint module with dual encoders</title><defs><radialGradient id="damiao-dm-j4310-gnd-1" cx="0.5" cy="0.5" r="0.5"><stop offset="0.0000" stop-color="#0b0f14" stop-opacity="0.2"/><stop offset="0.5500" stop-color="#0b0f14" stop-opacity="0.09000000000000001"/><stop offset="1.0000" stop-color="#0b0f14" stop-opacity="0.0"/></radialGradient><filter id="damiao-dm-j4310-bl-2" x="-60%" y="-60%" width="220%" height="220%"><feGaussianBlur stdDeviation="12.276"/></filter><linearGradient id="damiao-dm-j4310-top-3" x1="0" y1="0" x2="0.4" y2="1"><stop offset="0.0000" stop-color="#b7bec8"/><stop offset="1.0000" stop-color="#828994"/></linearGradient><linearGradient id="damiao-dm-j4310-side-4" x1="0" y1="0" x2="1" y2="0.2"><stop offset="0.0000" stop-color="#454a53"/><stop offset="1.0000" stop-color="#2f333a"/></linearGradient><linearGradient id="damiao-dm-j4310-face-5" x1="0" y1="0" x2="0.35" y2="1"><stop offset="0.0000" stop-color="#828994"/><stop offset="0.4500" stop-color="#606670"/><stop offset="1.0000" stop-color="#454a53"/></linearGradient><linearGradient id="damiao-dm-j4310-body-6" x1="0" y1="0" x2="1" y2="0"><stop offset="0.0000" stop-color="#25282d"/><stop offset="0.1000" stop-color="#3a3e45"/><stop offset="0.2600" stop-color="#565b64"/><stop offset="0.3400" stop-color="#8c929c"/><stop offset="0.4200" stop-color="#565b64"/><stop offset="0.6200" stop-color="#3a3e45"/><stop offset="0.8600" stop-color="#25282d"/><stop offset="1.0000" stop-color="#141619"/></linearGradient><linearGradient id="damiao-dm-j4310-bsh-7" x1="0" y1="0" x2="0" y2="1"><stop offset="0.0000" stop-color="#000" stop-opacity="0.0"/><stop offset="1.0000" stop-color="#000" stop-opacity="0.3"/></linearGradient><radialGradient id="damiao-dm-j4310-cap-8" cx="0.36" cy="0.3" r="0.78"><stop offset="0.0000" stop-color="#8c929c"/><stop offset="0.3400" stop-color="#565b64"/><stop offset="0.7200" stop-color="#3a3e45"/><stop offset="1.0000" stop-color="#25282d"/></radialGradient><linearGradient id="damiao-dm-j4310-ring-9" x1="0" y1="0" x2="1" y2="0"><stop offset="0.0000" stop-color="#992018"/><stop offset="0.1000" stop-color="#c62f22"/><stop offset="0.2600" stop-color="#e05a44"/><stop offset="0.3400" stop-color="#f3a494"/><stop offset="0.4200" stop-color="#e05a44"/><stop offset="0.6200" stop-color="#c62f22"/><stop offset="0.8600" stop-color="#992018"/><stop offset="1.0000" stop-color="#6d1410"/></linearGradient><linearGradient id="damiao-dm-j4310-fin-10" x1="0" y1="0" x2="0" y2="1"><stop offset="0.0000" stop-color="#000" stop-opacity="0.0"/><stop offset="0.5000" stop-color="#000" stop-opacity="0.22"/><stop offset="1.0000" stop-color="#000" stop-opacity="0.0"/></linearGradient><radialGradient id="damiao-dm-j4310-disc-11" cx="0.36" cy="0.3" r="0.78"><stop offset="0.0000" stop-color="#ffffff"/><stop offset="0.3400" stop-color="#eef0f2"/><stop offset="0.7200" stop-color="#d6dade"/><stop offset="1.0000" stop-color="#b3b9c1"/></radialGradient><linearGradient id="damiao-dm-j4310-sheen-12" x1="0" y1="0" x2="1" y2="1"><stop offset="0.0000" stop-color="#ffffff" stop-opacity="0.0"/><stop offset="0.3800" stop-color="#ffffff" stop-opacity="0.22"/><stop offset="0.5200" stop-color="#ffffff" stop-opacity="0.11"/><stop offset="1.0000" stop-color="#ffffff" stop-opacity="0.0"/></linearGradient></defs><g transform="translate(500.0 520.0) scale(1.15) translate(-500.0 -520.0)"><ellipse cx="500.0" cy="642.0" rx="223.2" ry="54.0" fill="url(#damiao-dm-j4310-gnd-1)" filter="url(#damiao-dm-j4310-bl-2)"/><path d="M 359.6 569.2 L 380.4 546.0 L 661.2 546.0 L 640.4 569.2 Z" fill="url(#damiao-dm-j4310-top-3)"/><path d="M 640.4 569.2 L 661.2 546.0 L 661.2 618.0 L 640.4 641.2 Z" fill="url(#damiao-dm-j4310-side-4)"/><rect x="359.6" y="569.2" width="280.8" height="72.0" rx="10.0" fill="url(#damiao-dm-j4310-face-5)"/><path d="M 369.6 569.2 L 630.4 569.2" fill="none" stroke="#b7bec8" stroke-opacity="0.55" stroke-width="2.0" stroke-linecap="round"/><path d="M 320.0 340.0 L 320.0 580.0 A 180.0 46.8 0 0 0 680.0 580.0 L 680.0 340.0 Z" fill="url(#damiao-dm-j4310-body-6)"/><path d="M 320.0 508.0 L 320.0 580.0 A 180.0 46.8 0 0 0 680.0 580.0 L 680.0 508.0 Z" fill="url(#damiao-dm-j4310-bsh-7)"/><ellipse cx="500.0" cy="340.0" rx="180.0" ry="46.8" fill="url(#damiao-dm-j4310-cap-8)"/><ellipse cx="500.0" cy="340.0" rx="180.0" ry="46.8" fill="none" stroke="#8c929c" stroke-opacity="0.55" stroke-width="1.6"/><path d="M 320.0 426.4 L 320.0 454.0 A 180.0 46.8 0 0 0 680.0 454.0 L 680.0 426.4 A 180.0 46.8 0 0 1 320.0 426.4 Z" fill="url(#damiao-dm-j4310-ring-9)" opacity="1.0"/><rect x="336.0" y="472.0" width="4" height="72.0" fill="url(#damiao-dm-j4310-fin-10)"/><rect x="377.0" y="472.0" width="4" height="72.0" fill="url(#damiao-dm-j4310-fin-10)"/><rect x="418.0" y="472.0" width="4" height="72.0" fill="url(#damiao-dm-j4310-fin-10)"/><rect x="459.0" y="472.0" width="4" height="72.0" fill="url(#damiao-dm-j4310-fin-10)"/><rect x="500.0" y="472.0" width="4" height="72.0" fill="url(#damiao-dm-j4310-fin-10)"/><rect x="541.0" y="472.0" width="4" height="72.0" fill="url(#damiao-dm-j4310-fin-10)"/><rect x="582.0" y="472.0" width="4" height="72.0" fill="url(#damiao-dm-j4310-fin-10)"/><rect x="623.0" y="472.0" width="4" height="72.0" fill="url(#damiao-dm-j4310-fin-10)"/><rect x="664.0" y="472.0" width="4" height="72.0" fill="url(#damiao-dm-j4310-fin-10)"/><ellipse cx="500.0" cy="340.0" rx="133.2" ry="34.6" fill="url(#damiao-dm-j4310-disc-11)"/><ellipse cx="500.0" cy="340.0" rx="133.2" ry="34.6" fill="none" stroke="#141619" stroke-opacity=".45" stroke-width="2"/><ellipse cx="582.6" cy="340.0" rx="10.0" ry="6.2" fill="#4a4f56" opacity="0.85"/><ellipse cx="582.6" cy="338.8" rx="6.6" ry="4.0" fill="#05070a" opacity="0.75"/><ellipse cx="541.3" cy="358.6" rx="10.0" ry="6.2" fill="#4a4f56" opacity="0.85"/><ellipse cx="541.3" cy="357.4" rx="6.6" ry="4.0" fill="#05070a" opacity="0.75"/><ellipse cx="458.7" cy="358.6" rx="10.0" ry="6.2" fill="#4a4f56" opacity="0.85"/><ellipse cx="458.7" cy="357.4" rx="6.6" ry="4.0" fill="#05070a" opacity="0.75"/><ellipse cx="417.4" cy="340.0" rx="10.0" ry="6.2" fill="#4a4f56" opacity="0.85"/><ellipse cx="417.4" cy="338.8" rx="6.6" ry="4.0" fill="#05070a" opacity="0.75"/><ellipse cx="458.7" cy="321.4" rx="10.0" ry="6.2" fill="#4a4f56" opacity="0.85"/><ellipse cx="458.7" cy="320.2" rx="6.6" ry="4.0" fill="#05070a" opacity="0.75"/><ellipse cx="541.3" cy="321.4" rx="10.0" ry="6.2" fill="#4a4f56" opacity="0.85"/><ellipse cx="541.3" cy="320.2" rx="6.6" ry="4.0" fill="#05070a" opacity="0.75"/><ellipse cx="500.0" cy="340.0" rx="32.0" ry="8.3" fill="#0a0d11" opacity=".9"/><rect x="348.8" y="364.0" width="72.0" height="172.8" rx="10.0" fill="url(#damiao-dm-j4310-sheen-12)"/><rect x="629.6" y="517.6" width="30" height="26" rx="7" fill="#454a53"/><path d="M 657.6 530.6 C 686.4 532.7 692.8 549.5 721.6 551.6 C 733.3 557.8 735.9 607.4 747.6 613.6" fill="none" stroke="#0e0f11" stroke-width="12.0" stroke-linecap="round"/><path d="M 657.6 530.6 C 686.4 532.7 692.8 549.5 721.6 551.6 C 733.3 557.8 735.9 607.4 747.6 613.6" fill="none" stroke="#2b2e33" stroke-width="7.9" stroke-linecap="round"/><path d="M 657.6 530.6 C 686.4 532.7 692.8 549.5 721.6 551.6 C 733.3 557.8 735.9 607.4 747.6 613.6" fill="none" stroke="#6d727a" stroke-opacity="0.45" stroke-width="2.4" stroke-linecap="round" transform="translate(-1.9,-2.2)"/></g></svg>