<svg xmlns="http://www.w3.org/2000/svg" viewBox="0 0 1000 1000" role="img" aria-label="AS5047P Magnetic Encoder — 14-bit on-axis absolute" preserveAspectRatio="xMidYMid meet"><title>AS5047P Magnetic Encoder — 14-bit on-axis absolute</title><defs><radialGradient id="encoder-as5047-gnd-1" cx="0.5" cy="0.5" r="0.5"><stop offset="0.0000" stop-color="#0b0f14" stop-opacity="0.2"/><stop offset="0.5500" stop-color="#0b0f14" stop-opacity="0.09000000000000001"/><stop offset="1.0000" stop-color="#0b0f14" stop-opacity="0.0"/></radialGradient><filter id="encoder-as5047-bl-2" x="-60%" y="-60%" width="220%" height="220%"><feGaussianBlur stdDeviation="11.616"/></filter><linearGradient id="encoder-as5047-top-3" x1="0" y1="0" x2="0.4" y2="1"><stop offset="0.0000" stop-color="#4fbe73"/><stop offset="1.0000" stop-color="#238a45"/></linearGradient><linearGradient id="encoder-as5047-side-4" x1="0" y1="0" x2="1" y2="0.2"><stop offset="0.0000" stop-color="#0f3f22"/><stop offset="1.0000" stop-color="#0a2a18"/></linearGradient><linearGradient id="encoder-as5047-face-5" x1="0" y1="0" x2="0.35" y2="1"><stop offset="0.0000" stop-color="#238a45"/><stop offset="0.4500" stop-color="#166030"/><stop offset="1.0000" stop-color="#0f3f22"/></linearGradient><linearGradient id="encoder-as5047-sheen-6" x1="0" y1="0" x2="1" y2="1"><stop offset="0.0000" stop-color="#ffffff" stop-opacity="0.0"/><stop offset="0.3800" stop-color="#ffffff" stop-opacity="0.14"/><stop offset="0.5200" stop-color="#ffffff" stop-opacity="0.07"/><stop offset="1.0000" stop-color="#ffffff" stop-opacity="0.0"/></linearGradient></defs><g transform="translate(500.0 520.0) scale(1.15) translate(-500.0 -520.0)"><ellipse cx="500.0" cy="686.0" rx="211.2" ry="26.0" fill="url(#encoder-as5047-gnd-1)" filter="url(#encoder-as5047-bl-2)"/><path d="M 280.0 350.0 L 290.4 338.4 L 730.4 338.4 L 720.0 350.0 Z" fill="url(#encoder-as5047-top-3)"/><path d="M 720.0 350.0 L 730.4 338.4 L 730.4 638.4 L 720.0 650.0 Z" fill="url(#encoder-as5047-side-4)"/><rect x="280.0" y="350.0" width="440.0" height="300.0" rx="12.0" fill="url(#encoder-as5047-face-5)"/><path d="M 292.0 350.0 L 708.0 350.0" fill="none" stroke="#4fbe73" stroke-opacity="0.55" stroke-width="2.0" stroke-linecap="round"/><rect x="430.0" y="434.0" width="140" height="102.0" rx="8" fill="#2b2e33"/><rect x="430.0" y="434.0" width="140" height="33.0" rx="8" fill="#6d727a" opacity=".22"/><circle cx="448.0" cy="458.0" r="6" fill="#6d727a" opacity=".5"/><rect x="324.0" y="634.0" width="18" height="16" rx="3" fill="#e0bb60" opacity=".85"/><rect x="324.0" y="350.0" width="18" height="16" rx="3" fill="#e0bb60" opacity=".85"/><rect x="368.0" y="634.0" width="18" height="16" rx="3" fill="#e0bb60" opacity=".85"/><rect x="368.0" y="350.0" width="18" height="16" rx="3" fill="#e0bb60" opacity=".85"/><rect x="412.0" y="634.0" width="18" height="16" rx="3" fill="#e0bb60" opacity=".85"/><rect x="412.0" y="350.0" width="18" height="16" rx="3" fill="#e0bb60" opacity=".85"/><rect x="456.0" y="634.0" width="18" height="16" rx="3" fill="#e0bb60" opacity=".85"/><rect x="456.0" y="350.0" width="18" height="16" rx="3" fill="#e0bb60" opacity=".85"/><rect x="500.0" y="634.0" width="18" height="16" rx="3" fill="#e0bb60" opacity=".85"/><rect x="500.0" y="350.0" width="18" height="16" rx="3" fill="#e0bb60" opacity=".85"/><rect x="544.0" y="634.0" width="18" height="16" rx="3" fill="#e0bb60" opacity=".85"/><rect x="544.0" y="350.0" width="18" height="16" rx="3" fill="#e0bb60" opacity=".85"/><rect x="588.0" y="634.0" width="18" height="16" rx="3" fill="#e0bb60" opacity=".85"/><rect x="588.0" y="350.0" width="18" height="16" rx="3" fill="#e0bb60" opacity=".85"/><rect x="632.0" y="634.0" width="18" height="16" rx="3" fill="#e0bb60" opacity=".85"/><rect x="632.0" y="350.0" width="18" height="16" rx="3" fill="#e0bb60" opacity=".85"/><rect x="596.8" y="440.0" width="22" height="12" rx="3" fill="#414449"/><rect x="626.8" y="440.0" width="22" height="12" rx="3" fill="#414449"/><rect x="596.8" y="474.0" width="22" height="12" rx="3" fill="#414449"/><rect x="626.8" y="474.0" width="22" height="12" rx="3" fill="#414449"/><circle cx="350.4" cy="566.0" r="7" fill="#37d67a"/><rect x="292.0" y="360.0" width="105.6" height="280.0" rx="8.0" fill="url(#encoder-as5047-sheen-6)"/></g></svg>