<svg xmlns="http://www.w3.org/2000/svg" viewBox="0 0 1000 1000" role="img" aria-label="HOTO Electric Precision Screwdriver — 3 torque settings · 60 bits" preserveAspectRatio="xMidYMid meet"><title>HOTO Electric Precision Screwdriver — 3 torque settings · 60 bits</title><defs><radialGradient id="hoto-electric-driver-gnd-1" cx="0.5" cy="0.5" r="0.5"><stop offset="0.0000" stop-color="#0b0f14" stop-opacity="0.2"/><stop offset="0.5500" stop-color="#0b0f14" stop-opacity="0.09000000000000001"/><stop offset="1.0000" stop-color="#0b0f14" stop-opacity="0.0"/></radialGradient><filter id="hoto-electric-driver-bl-2" x="-60%" y="-60%" width="220%" height="220%"><feGaussianBlur stdDeviation="18.15"/></filter><linearGradient id="hoto-electric-driver-hnd-3" x1="0" y1="0" x2="0" y2="1"><stop offset="0.0000" stop-color="#8c929c"/><stop offset="0.3000" stop-color="#565b64"/><stop offset="0.6200" stop-color="#3a3e45"/><stop offset="1.0000" stop-color="#141619"/></linearGradient><linearGradient id="hoto-electric-driver-top-4" x1="0" y1="0" x2="0.4" y2="1"><stop offset="0.0000" stop-color="#ffffff"/><stop offset="1.0000" stop-color="#eef0f2"/></linearGradient><linearGradient id="hoto-electric-driver-side-5" x1="0" y1="0" x2="1" y2="0.2"><stop offset="0.0000" stop-color="#b3b9c1"/><stop offset="1.0000" stop-color="#8d939c"/></linearGradient><linearGradient id="hoto-electric-driver-face-6" x1="0" y1="0" x2="0.35" y2="1"><stop offset="0.0000" stop-color="#eef0f2"/><stop offset="0.4500" stop-color="#d6dade"/><stop offset="1.0000" stop-color="#b3b9c1"/></linearGradient><linearGradient id="hoto-electric-driver-sheen-7" x1="0" y1="0" x2="1" y2="1"><stop offset="0.0000" stop-color="#ffffff" stop-opacity="0.0"/><stop offset="0.3800" stop-color="#ffffff" stop-opacity="0.2"/><stop offset="0.5200" stop-color="#ffffff" stop-opacity="0.1"/><stop offset="1.0000" stop-color="#ffffff" stop-opacity="0.0"/></linearGradient></defs><g transform="translate(500.0 520.0) scale(1.15) translate(-500.0 -520.0)"><ellipse cx="500.0" cy="812.0" rx="330.0" ry="44.0" fill="url(#hoto-electric-driver-gnd-1)" filter="url(#hoto-electric-driver-bl-2)"/><rect x="250.0" y="250.0" width="400.0" height="92.0" rx="46.0" fill="#3a3e45"/><rect x="250.0" y="250.0" width="400.0" height="92.0" rx="46.0" fill="url(#hoto-electric-driver-hnd-3)"/><rect x="290.0" y="256.0" width="3" height="80.0" rx="1.5" fill="#000" opacity=".16"/><rect x="302.0" y="256.0" width="3" height="80.0" rx="1.5" fill="#000" opacity=".16"/><rect x="314.0" y="256.0" width="3" height="80.0" rx="1.5" fill="#000" opacity=".16"/><rect x="326.0" y="256.0" width="3" height="80.0" rx="1.5" fill="#000" opacity=".16"/><rect x="338.0" y="256.0" width="3" height="80.0" rx="1.5" fill="#000" opacity=".16"/><rect x="350.0" y="256.0" width="3" height="80.0" rx="1.5" fill="#000" opacity=".16"/><rect x="362.0" y="256.0" width="3" height="80.0" rx="1.5" fill="#000" opacity=".16"/><rect x="374.0" y="256.0" width="3" height="80.0" rx="1.5" fill="#000" opacity=".16"/><rect x="386.0" y="256.0" width="3" height="80.0" rx="1.5" fill="#000" opacity=".16"/><rect x="398.0" y="256.0" width="3" height="80.0" rx="1.5" fill="#000" opacity=".16"/><rect x="410.0" y="256.0" width="3" height="80.0" rx="1.5" fill="#000" opacity=".16"/><rect x="422.0" y="256.0" width="3" height="80.0" rx="1.5" fill="#000" opacity=".16"/><rect x="434.0" y="256.0" width="3" height="80.0" rx="1.5" fill="#000" opacity=".16"/><rect x="446.0" y="256.0" width="3" height="80.0" rx="1.5" fill="#000" opacity=".16"/><rect x="458.0" y="256.0" width="3" height="80.0" rx="1.5" fill="#000" opacity=".16"/><rect x="470.0" y="256.0" width="3" height="80.0" rx="1.5" fill="#000" opacity=".16"/><circle cx="624.0" cy="296.0" r="27.6" fill="#3a3e45"/><rect x="180.0" y="275.8" width="76" height="40.5" rx="8" fill="#ccd1d6"/><rect x="180.0" y="275.8" width="76" height="14.7" rx="6" fill="#f2f4f6" opacity=".6"/><rect x="124.0" y="285.0" width="60" height="22.1" rx="4" fill="#a5abb3"/><path d="M 170.0 430.0 L 192.9 404.5 L 852.9 404.5 L 830.0 430.0 Z" fill="url(#hoto-electric-driver-top-4)"/><path d="M 830.0 430.0 L 852.9 404.5 L 852.9 704.5 L 830.0 730.0 Z" fill="url(#hoto-electric-driver-side-5)"/><rect x="170.0" y="430.0" width="660.0" height="300.0" rx="20.0" fill="url(#hoto-electric-driver-face-6)"/><path d="M 190.0 430.0 L 810.0 430.0" fill="none" stroke="#ffffff" stroke-opacity="0.55" stroke-width="2.0" stroke-linecap="round"/><rect x="190.0" y="450.0" width="620.0" height="260.0" rx="12" fill="#2b2e33"/><rect x="209.0" y="486.0" width="26" height="76" rx="7" fill="#07090c" opacity=".6"/><rect x="213.0" y="494.0" width="18" height="58" rx="4" fill="#a5abb3"/><rect x="213.0" y="494.0" width="6" height="58" fill="#f2f4f6" opacity=".62"/><rect x="216.0" y="536.0" width="12" height="16" rx="2" fill="#3a3e45"/><rect x="288.4" y="486.0" width="26" height="76" rx="7" fill="#07090c" opacity=".6"/><rect x="292.4" y="494.0" width="18" height="58" rx="4" fill="#a5abb3"/><rect x="292.4" y="494.0" width="6" height="58" fill="#f2f4f6" opacity=".62"/><rect x="295.4" y="536.0" width="12" height="16" rx="2" fill="#3a3e45"/><rect x="367.9" y="486.0" width="26" height="76" rx="7" fill="#07090c" opacity=".6"/><rect x="371.9" y="494.0" width="18" height="58" rx="4" fill="#a5abb3"/><rect x="371.9" y="494.0" width="6" height="58" fill="#f2f4f6" opacity=".62"/><rect x="374.9" y="536.0" width="12" height="16" rx="2" fill="#3a3e45"/><rect x="447.3" y="486.0" width="26" height="76" rx="7" fill="#07090c" opacity=".6"/><rect x="451.3" y="494.0" width="18" height="58" rx="4" fill="#a5abb3"/><rect x="451.3" y="494.0" width="6" height="58" fill="#f2f4f6" opacity=".62"/><rect x="454.3" y="536.0" width="12" height="16" rx="2" fill="#3a3e45"/><rect x="526.7" y="486.0" width="26" height="76" rx="7" fill="#07090c" opacity=".6"/><rect x="530.7" y="494.0" width="18" height="58" rx="4" fill="#a5abb3"/><rect x="530.7" y="494.0" width="6" height="58" fill="#f2f4f6" opacity=".62"/><rect x="533.7" y="536.0" width="12" height="16" rx="2" fill="#3a3e45"/><rect x="606.1" y="486.0" width="26" height="76" rx="7" fill="#07090c" opacity=".6"/><rect x="610.1" y="494.0" width="18" height="58" rx="4" fill="#a5abb3"/><rect x="610.1" y="494.0" width="6" height="58" fill="#f2f4f6" opacity=".62"/><rect x="613.1" y="536.0" width="12" height="16" rx="2" fill="#3a3e45"/><rect x="685.6" y="486.0" width="26" height="76" rx="7" fill="#07090c" opacity=".6"/><rect x="689.6" y="494.0" width="18" height="58" rx="4" fill="#a5abb3"/><rect x="689.6" y="494.0" width="6" height="58" fill="#f2f4f6" opacity=".62"/><rect x="692.6" y="536.0" width="12" height="16" rx="2" fill="#3a3e45"/><rect x="765.0" y="486.0" width="26" height="76" rx="7" fill="#07090c" opacity=".6"/><rect x="769.0" y="494.0" width="18" height="58" rx="4" fill="#a5abb3"/><rect x="769.0" y="494.0" width="6" height="58" fill="#f2f4f6" opacity=".62"/><rect x="772.0" y="536.0" width="12" height="16" rx="2" fill="#3a3e45"/><rect x="209.0" y="598.0" width="26" height="76" rx="7" fill="#07090c" opacity=".6"/><rect x="213.0" y="606.0" width="18" height="58" rx="4" fill="#a5abb3"/><rect x="213.0" y="606.0" width="6" height="58" fill="#f2f4f6" opacity=".62"/><rect x="216.0" y="648.0" width="12" height="16" rx="2" fill="#3a3e45"/><rect x="288.4" y="598.0" width="26" height="76" rx="7" fill="#07090c" opacity=".6"/><rect x="292.4" y="606.0" width="18" height="58" rx="4" fill="#a5abb3"/><rect x="292.4" y="606.0" width="6" height="58" fill="#f2f4f6" opacity=".62"/><rect x="295.4" y="648.0" width="12" height="16" rx="2" fill="#3a3e45"/><rect x="367.9" y="598.0" width="26" height="76" rx="7" fill="#07090c" opacity=".6"/><rect x="371.9" y="606.0" width="18" height="58" rx="4" fill="#a5abb3"/><rect x="371.9" y="606.0" width="6" height="58" fill="#f2f4f6" opacity=".62"/><rect x="374.9" y="648.0" width="12" height="16" rx="2" fill="#3a3e45"/><rect x="447.3" y="598.0" width="26" height="76" rx="7" fill="#07090c" opacity=".6"/><rect x="451.3" y="606.0" width="18" height="58" rx="4" fill="#a5abb3"/><rect x="451.3" y="606.0" width="6" height="58" fill="#f2f4f6" opacity=".62"/><rect x="454.3" y="648.0" width="12" height="16" rx="2" fill="#3a3e45"/><rect x="526.7" y="598.0" width="26" height="76" rx="7" fill="#07090c" opacity=".6"/><rect x="530.7" y="606.0" width="18" height="58" rx="4" fill="#a5abb3"/><rect x="530.7" y="606.0" width="6" height="58" fill="#f2f4f6" opacity=".62"/><rect x="533.7" y="648.0" width="12" height="16" rx="2" fill="#3a3e45"/><rect x="606.1" y="598.0" width="26" height="76" rx="7" fill="#07090c" opacity=".6"/><rect x="610.1" y="606.0" width="18" height="58" rx="4" fill="#a5abb3"/><rect x="610.1" y="606.0" width="6" height="58" fill="#f2f4f6" opacity=".62"/><rect x="613.1" y="648.0" width="12" height="16" rx="2" fill="#3a3e45"/><rect x="685.6" y="598.0" width="26" height="76" rx="7" fill="#07090c" opacity=".6"/><rect x="689.6" y="606.0" width="18" height="58" rx="4" fill="#a5abb3"/><rect x="689.6" y="606.0" width="6" height="58" fill="#f2f4f6" opacity=".62"/><rect x="692.6" y="648.0" width="12" height="16" rx="2" fill="#3a3e45"/><rect x="765.0" y="598.0" width="26" height="76" rx="7" fill="#07090c" opacity=".6"/><rect x="769.0" y="606.0" width="18" height="58" rx="4" fill="#a5abb3"/><rect x="769.0" y="606.0" width="6" height="58" fill="#f2f4f6" opacity=".62"/><rect x="772.0" y="648.0" width="12" height="16" rx="2" fill="#3a3e45"/><rect x="188.0" y="444.0" width="158.4" height="272.0" rx="14.0" fill="url(#hoto-electric-driver-sheen-7)"/></g></svg>