<svg xmlns="http://www.w3.org/2000/svg" viewBox="0 0 1000 1000" role="img" aria-label="T8 Lead Screw &amp; Anti-Backlash Nut — 8 mm trapezoidal, 2 mm lead" preserveAspectRatio="xMidYMid meet"><title>T8 Lead Screw &amp; Anti-Backlash Nut — 8 mm trapezoidal, 2 mm lead</title><defs><radialGradient id="leadscrew-t8-gnd-1" cx="0.5" cy="0.5" r="0.5"><stop offset="0.0000" stop-color="#0b0f14" stop-opacity="0.2"/><stop offset="0.5500" stop-color="#0b0f14" stop-opacity="0.09000000000000001"/><stop offset="1.0000" stop-color="#0b0f14" stop-opacity="0.0"/></radialGradient><filter id="leadscrew-t8-bl-2" x="-60%" y="-60%" width="220%" height="220%"><feGaussianBlur stdDeviation="17.82"/></filter><linearGradient id="leadscrew-t8-pl-t-3" x1="0" y1="0" x2="0.45" y2="1"><stop offset="0.0000" stop-color="#f2f4f6"/><stop offset="0.4000" stop-color="#ccd1d6"/><stop offset="1.0000" stop-color="#a5abb3"/></linearGradient><linearGradient id="leadscrew-t8-pl-e-4" x1="0" y1="0" x2="0" y2="1"><stop offset="0.0000" stop-color="#a5abb3"/><stop offset="1.0000" stop-color="#6b7078"/></linearGradient><linearGradient id="leadscrew-t8-sheen-5" x1="0" y1="0" x2="1" y2="1"><stop offset="0.0000" stop-color="#ffffff" stop-opacity="0.0"/><stop offset="0.3800" stop-color="#ffffff" stop-opacity="0.22"/><stop offset="0.5200" stop-color="#ffffff" stop-opacity="0.11"/><stop offset="1.0000" stop-color="#ffffff" stop-opacity="0.0"/></linearGradient></defs><g transform="translate(500.0 520.0) scale(1.15) translate(-500.0 -520.0)"><ellipse cx="500.0" cy="664.0" rx="324.0" ry="38.0" fill="url(#leadscrew-t8-gnd-1)" filter="url(#leadscrew-t8-bl-2)"/><path d="M 200.0 430.0 L 350.0 322.0 L 950.0 322.0 L 800.0 430.0 Z" fill="url(#leadscrew-t8-pl-t-3)"/><ellipse cx="267.9" cy="412.0" rx="22.0" ry="13.6" fill="#6b7078" opacity=".85"/><ellipse cx="267.9" cy="414.0" rx="18.0" ry="10.6" fill="#0a0d11" opacity=".62"/><ellipse cx="353.6" cy="412.0" rx="16.0" ry="9.9" fill="#6b7078" opacity=".85"/><ellipse cx="353.6" cy="414.0" rx="13.1" ry="7.7" fill="#0a0d11" opacity=".62"/><ellipse cx="439.3" cy="412.0" rx="16.0" ry="9.9" fill="#6b7078" opacity=".85"/><ellipse cx="439.3" cy="414.0" rx="13.1" ry="7.7" fill="#0a0d11" opacity=".62"/><ellipse cx="525.0" cy="412.0" rx="22.0" ry="13.6" fill="#6b7078" opacity=".85"/><ellipse cx="525.0" cy="414.0" rx="18.0" ry="10.6" fill="#0a0d11" opacity=".62"/><ellipse cx="610.7" cy="412.0" rx="16.0" ry="9.9" fill="#6b7078" opacity=".85"/><ellipse cx="610.7" cy="414.0" rx="13.1" ry="7.7" fill="#0a0d11" opacity=".62"/><ellipse cx="696.4" cy="412.0" rx="16.0" ry="9.9" fill="#6b7078" opacity=".85"/><ellipse cx="696.4" cy="414.0" rx="13.1" ry="7.7" fill="#0a0d11" opacity=".62"/><ellipse cx="782.1" cy="412.0" rx="22.0" ry="13.6" fill="#6b7078" opacity=".85"/><ellipse cx="782.1" cy="414.0" rx="18.0" ry="10.6" fill="#0a0d11" opacity=".62"/><ellipse cx="317.9" cy="376.0" rx="16.0" ry="9.9" fill="#6b7078" opacity=".85"/><ellipse cx="317.9" cy="378.0" rx="13.1" ry="7.7" fill="#0a0d11" opacity=".62"/><ellipse cx="403.6" cy="376.0" rx="16.0" ry="9.9" fill="#6b7078" opacity=".85"/><ellipse cx="403.6" cy="378.0" rx="13.1" ry="7.7" fill="#0a0d11" opacity=".62"/><ellipse cx="489.3" cy="376.0" rx="22.0" ry="13.6" fill="#6b7078" opacity=".85"/><ellipse cx="489.3" cy="378.0" rx="18.0" ry="10.6" fill="#0a0d11" opacity=".62"/><ellipse cx="575.0" cy="376.0" rx="16.0" ry="9.9" fill="#6b7078" opacity=".85"/><ellipse cx="575.0" cy="378.0" rx="13.1" ry="7.7" fill="#0a0d11" opacity=".62"/><ellipse cx="660.7" cy="376.0" rx="16.0" ry="9.9" fill="#6b7078" opacity=".85"/><ellipse cx="660.7" cy="378.0" rx="13.1" ry="7.7" fill="#0a0d11" opacity=".62"/><ellipse cx="746.4" cy="376.0" rx="22.0" ry="13.6" fill="#6b7078" opacity=".85"/><ellipse cx="746.4" cy="378.0" rx="18.0" ry="10.6" fill="#0a0d11" opacity=".62"/><ellipse cx="832.1" cy="376.0" rx="16.0" ry="9.9" fill="#6b7078" opacity=".85"/><ellipse cx="832.1" cy="378.0" rx="13.1" ry="7.7" fill="#0a0d11" opacity=".62"/><ellipse cx="367.9" cy="340.0" rx="16.0" ry="9.9" fill="#6b7078" opacity=".85"/><ellipse cx="367.9" cy="342.0" rx="13.1" ry="7.7" fill="#0a0d11" opacity=".62"/><ellipse cx="453.6" cy="340.0" rx="22.0" ry="13.6" fill="#6b7078" opacity=".85"/><ellipse cx="453.6" cy="342.0" rx="18.0" ry="10.6" fill="#0a0d11" opacity=".62"/><ellipse cx="539.3" cy="340.0" rx="16.0" ry="9.9" fill="#6b7078" opacity=".85"/><ellipse cx="539.3" cy="342.0" rx="13.1" ry="7.7" fill="#0a0d11" opacity=".62"/><ellipse cx="625.0" cy="340.0" rx="16.0" ry="9.9" fill="#6b7078" opacity=".85"/><ellipse cx="625.0" cy="342.0" rx="13.1" ry="7.7" fill="#0a0d11" opacity=".62"/><ellipse cx="710.7" cy="340.0" rx="22.0" ry="13.6" fill="#6b7078" opacity=".85"/><ellipse cx="710.7" cy="342.0" rx="18.0" ry="10.6" fill="#0a0d11" opacity=".62"/><ellipse cx="796.4" cy="340.0" rx="16.0" ry="9.9" fill="#6b7078" opacity=".85"/><ellipse cx="796.4" cy="342.0" rx="13.1" ry="7.7" fill="#0a0d11" opacity=".62"/><ellipse cx="882.1" cy="340.0" rx="16.0" ry="9.9" fill="#6b7078" opacity=".85"/><ellipse cx="882.1" cy="342.0" rx="13.1" ry="7.7" fill="#0a0d11" opacity=".62"/><ellipse cx="575.0" cy="376.0" rx="80" ry="43" fill="#4a4f56" opacity=".55"/><ellipse cx="575.0" cy="378.0" rx="74" ry="38" fill="#0a0d11" opacity=".45"/><path d="M 200.0 430.0 L 800.0 430.0 L 800.0 450.0 L 200.0 450.0 Z" fill="url(#leadscrew-t8-pl-e-4)"/><path d="M 800.0 430.0 L 950.0 322.0 L 950.0 342.0 L 800.0 450.0 Z" fill="#4a4f56"/><path d="M 200.0 430.0 L 350.0 322.0" fill="none" stroke="#f2f4f6" stroke-opacity="0.6" stroke-width="2.2" stroke-linecap="round"/><rect x="224.0" y="330.0" width="168.0" height="118.0" rx="6.0" fill="url(#leadscrew-t8-sheen-5)"/></g></svg>