<svg xmlns="http://www.w3.org/2000/svg" viewBox="0 0 1000 1000" role="img" aria-label="Linear Rail MGN12 + Carriage — Recirculating-ball linear guide" preserveAspectRatio="xMidYMid meet"><title>Linear Rail MGN12 + Carriage — Recirculating-ball linear guide</title><defs><radialGradient id="linear-rail-mgn12-gnd-1" cx="0.5" cy="0.5" r="0.5"><stop offset="0.0000" stop-color="#0b0f14" stop-opacity="0.2"/><stop offset="0.5500" stop-color="#0b0f14" stop-opacity="0.09000000000000001"/><stop offset="1.0000" stop-color="#0b0f14" stop-opacity="0.0"/></radialGradient><filter id="linear-rail-mgn12-bl-2" x="-60%" y="-60%" width="220%" height="220%"><feGaussianBlur stdDeviation="18.414"/></filter><linearGradient id="linear-rail-mgn12-pl-t-3" x1="0" y1="0" x2="0.45" y2="1"><stop offset="0.0000" stop-color="#f2f4f6"/><stop offset="0.4000" stop-color="#ccd1d6"/><stop offset="1.0000" stop-color="#a5abb3"/></linearGradient><linearGradient id="linear-rail-mgn12-pl-e-4" x1="0" y1="0" x2="0" y2="1"><stop offset="0.0000" stop-color="#a5abb3"/><stop offset="1.0000" stop-color="#6b7078"/></linearGradient><linearGradient id="linear-rail-mgn12-sheen-5" x1="0" y1="0" x2="1" y2="1"><stop offset="0.0000" stop-color="#ffffff" stop-opacity="0.0"/><stop offset="0.3800" stop-color="#ffffff" stop-opacity="0.22"/><stop offset="0.5200" stop-color="#ffffff" stop-opacity="0.11"/><stop offset="1.0000" stop-color="#ffffff" stop-opacity="0.0"/></linearGradient></defs><g transform="translate(500.0 520.0) scale(1.15) translate(-500.0 -520.0)"><ellipse cx="500.0" cy="664.0" rx="334.8" ry="38.0" fill="url(#linear-rail-mgn12-gnd-1)" filter="url(#linear-rail-mgn12-bl-2)"/><path d="M 190.0 430.0 L 340.0 322.0 L 960.0 322.0 L 810.0 430.0 Z" fill="url(#linear-rail-mgn12-pl-t-3)"/><ellipse cx="259.3" cy="412.0" rx="22.0" ry="13.6" fill="#6b7078" opacity=".85"/><ellipse cx="259.3" cy="414.0" rx="18.0" ry="10.6" fill="#0a0d11" opacity=".62"/><ellipse cx="347.9" cy="412.0" rx="16.0" ry="9.9" fill="#6b7078" opacity=".85"/><ellipse cx="347.9" cy="414.0" rx="13.1" ry="7.7" fill="#0a0d11" opacity=".62"/><ellipse cx="436.4" cy="412.0" rx="16.0" ry="9.9" fill="#6b7078" opacity=".85"/><ellipse cx="436.4" cy="414.0" rx="13.1" ry="7.7" fill="#0a0d11" opacity=".62"/><ellipse cx="525.0" cy="412.0" rx="22.0" ry="13.6" fill="#6b7078" opacity=".85"/><ellipse cx="525.0" cy="414.0" rx="18.0" ry="10.6" fill="#0a0d11" opacity=".62"/><ellipse cx="613.6" cy="412.0" rx="16.0" ry="9.9" fill="#6b7078" opacity=".85"/><ellipse cx="613.6" cy="414.0" rx="13.1" ry="7.7" fill="#0a0d11" opacity=".62"/><ellipse cx="702.1" cy="412.0" rx="16.0" ry="9.9" fill="#6b7078" opacity=".85"/><ellipse cx="702.1" cy="414.0" rx="13.1" ry="7.7" fill="#0a0d11" opacity=".62"/><ellipse cx="790.7" cy="412.0" rx="22.0" ry="13.6" fill="#6b7078" opacity=".85"/><ellipse cx="790.7" cy="414.0" rx="18.0" ry="10.6" fill="#0a0d11" opacity=".62"/><ellipse cx="309.3" cy="376.0" rx="16.0" ry="9.9" fill="#6b7078" opacity=".85"/><ellipse cx="309.3" cy="378.0" rx="13.1" ry="7.7" fill="#0a0d11" opacity=".62"/><ellipse cx="397.9" cy="376.0" rx="16.0" ry="9.9" fill="#6b7078" opacity=".85"/><ellipse cx="397.9" cy="378.0" rx="13.1" ry="7.7" fill="#0a0d11" opacity=".62"/><ellipse cx="486.4" cy="376.0" rx="22.0" ry="13.6" fill="#6b7078" opacity=".85"/><ellipse cx="486.4" cy="378.0" rx="18.0" ry="10.6" fill="#0a0d11" opacity=".62"/><ellipse cx="575.0" cy="376.0" rx="16.0" ry="9.9" fill="#6b7078" opacity=".85"/><ellipse cx="575.0" cy="378.0" rx="13.1" ry="7.7" fill="#0a0d11" opacity=".62"/><ellipse cx="663.6" cy="376.0" rx="16.0" ry="9.9" fill="#6b7078" opacity=".85"/><ellipse cx="663.6" cy="378.0" rx="13.1" ry="7.7" fill="#0a0d11" opacity=".62"/><ellipse cx="752.1" cy="376.0" rx="22.0" ry="13.6" fill="#6b7078" opacity=".85"/><ellipse cx="752.1" cy="378.0" rx="18.0" ry="10.6" fill="#0a0d11" opacity=".62"/><ellipse cx="840.7" cy="376.0" rx="16.0" ry="9.9" fill="#6b7078" opacity=".85"/><ellipse cx="840.7" cy="378.0" rx="13.1" ry="7.7" fill="#0a0d11" opacity=".62"/><ellipse cx="359.3" cy="340.0" rx="16.0" ry="9.9" fill="#6b7078" opacity=".85"/><ellipse cx="359.3" cy="342.0" rx="13.1" ry="7.7" fill="#0a0d11" opacity=".62"/><ellipse cx="447.9" cy="340.0" rx="22.0" ry="13.6" fill="#6b7078" opacity=".85"/><ellipse cx="447.9" cy="342.0" rx="18.0" ry="10.6" fill="#0a0d11" opacity=".62"/><ellipse cx="536.4" cy="340.0" rx="16.0" ry="9.9" fill="#6b7078" opacity=".85"/><ellipse cx="536.4" cy="342.0" rx="13.1" ry="7.7" fill="#0a0d11" opacity=".62"/><ellipse cx="625.0" cy="340.0" rx="16.0" ry="9.9" fill="#6b7078" opacity=".85"/><ellipse cx="625.0" cy="342.0" rx="13.1" ry="7.7" fill="#0a0d11" opacity=".62"/><ellipse cx="713.6" cy="340.0" rx="22.0" ry="13.6" fill="#6b7078" opacity=".85"/><ellipse cx="713.6" cy="342.0" rx="18.0" ry="10.6" fill="#0a0d11" opacity=".62"/><ellipse cx="802.1" cy="340.0" rx="16.0" ry="9.9" fill="#6b7078" opacity=".85"/><ellipse cx="802.1" cy="342.0" rx="13.1" ry="7.7" fill="#0a0d11" opacity=".62"/><ellipse cx="890.7" cy="340.0" rx="16.0" ry="9.9" fill="#6b7078" opacity=".85"/><ellipse cx="890.7" cy="342.0" rx="13.1" ry="7.7" fill="#0a0d11" opacity=".62"/><ellipse cx="575.0" cy="376.0" rx="80" ry="43" fill="#4a4f56" opacity=".55"/><ellipse cx="575.0" cy="378.0" rx="74" ry="38" fill="#0a0d11" opacity=".45"/><path d="M 190.0 430.0 L 810.0 430.0 L 810.0 450.0 L 190.0 450.0 Z" fill="url(#linear-rail-mgn12-pl-e-4)"/><path d="M 810.0 430.0 L 960.0 322.0 L 960.0 342.0 L 810.0 450.0 Z" fill="#4a4f56"/><path d="M 190.0 430.0 L 340.0 322.0" fill="none" stroke="#f2f4f6" stroke-opacity="0.6" stroke-width="2.2" stroke-linecap="round"/><rect x="214.0" y="330.0" width="173.6" height="118.0" rx="6.0" fill="url(#linear-rail-mgn12-sheen-5)"/></g></svg>