<svg xmlns="http://www.w3.org/2000/svg" viewBox="0 0 1000 1000" role="img" aria-label="MABEL Neck Mounting Plate — Laser-cut sheet metal · 2 bends" preserveAspectRatio="xMidYMid meet"><title>MABEL Neck Mounting Plate — Laser-cut sheet metal · 2 bends</title><defs><radialGradient id="mabel-neck-plate-gnd-1" cx="0.5" cy="0.5" r="0.5"><stop offset="0.0000" stop-color="#0b0f14" stop-opacity="0.2"/><stop offset="0.5500" stop-color="#0b0f14" stop-opacity="0.09000000000000001"/><stop offset="1.0000" stop-color="#0b0f14" stop-opacity="0.0"/></radialGradient><filter id="mabel-neck-plate-bl-2" x="-60%" y="-60%" width="220%" height="220%"><feGaussianBlur stdDeviation="16.632"/></filter><linearGradient id="mabel-neck-plate-pl-t-3" x1="0" y1="0" x2="0.45" y2="1"><stop offset="0.0000" stop-color="#ffffff"/><stop offset="0.4000" stop-color="#eef0f2"/><stop offset="1.0000" stop-color="#d6dade"/></linearGradient><linearGradient id="mabel-neck-plate-pl-e-4" x1="0" y1="0" x2="0" y2="1"><stop offset="0.0000" stop-color="#d6dade"/><stop offset="1.0000" stop-color="#6b7078"/></linearGradient><linearGradient id="mabel-neck-plate-pl-b-5" x1="0" y1="0" x2="0.35" y2="1"><stop offset="0.0000" stop-color="#b8bdc4"/><stop offset="0.4200" stop-color="#8f959d"/><stop offset="1.0000" stop-color="#4a4f56"/></linearGradient><linearGradient id="mabel-neck-plate-sheen-6" x1="0" y1="0" x2="1" y2="1"><stop offset="0.0000" stop-color="#ffffff" stop-opacity="0.0"/><stop offset="0.3800" stop-color="#ffffff" stop-opacity="0.16"/><stop offset="0.5200" stop-color="#ffffff" stop-opacity="0.08"/><stop offset="1.0000" stop-color="#ffffff" stop-opacity="0.0"/></linearGradient><linearGradient id="mabel-neck-plate-sheen-7" x1="0" y1="0" x2="1" y2="1"><stop offset="0.0000" stop-color="#ffffff" stop-opacity="0.0"/><stop offset="0.3800" stop-color="#ffffff" stop-opacity="0.22"/><stop offset="0.5200" stop-color="#ffffff" stop-opacity="0.11"/><stop offset="1.0000" stop-color="#ffffff" stop-opacity="0.0"/></linearGradient></defs><g transform="translate(500.0 520.0) scale(1.15) translate(-500.0 -520.0)"><ellipse cx="500.0" cy="664.0" rx="302.4" ry="38.0" fill="url(#mabel-neck-plate-gnd-1)" filter="url(#mabel-neck-plate-bl-2)"/><path d="M 220.0 430.0 L 370.0 322.0 L 930.0 322.0 L 780.0 430.0 Z" fill="url(#mabel-neck-plate-pl-t-3)"/><ellipse cx="285.0" cy="412.0" rx="22.0" ry="13.6" fill="#6b7078" opacity=".85"/><ellipse cx="285.0" cy="414.0" rx="18.0" ry="10.6" fill="#0a0d11" opacity=".62"/><ellipse cx="365.0" cy="412.0" rx="16.0" ry="9.9" fill="#6b7078" opacity=".85"/><ellipse cx="365.0" cy="414.0" rx="13.1" ry="7.7" fill="#0a0d11" opacity=".62"/><ellipse cx="445.0" cy="412.0" rx="16.0" ry="9.9" fill="#6b7078" opacity=".85"/><ellipse cx="445.0" cy="414.0" rx="13.1" ry="7.7" fill="#0a0d11" opacity=".62"/><ellipse cx="525.0" cy="412.0" rx="22.0" ry="13.6" fill="#6b7078" opacity=".85"/><ellipse cx="525.0" cy="414.0" rx="18.0" ry="10.6" fill="#0a0d11" opacity=".62"/><ellipse cx="605.0" cy="412.0" rx="16.0" ry="9.9" fill="#6b7078" opacity=".85"/><ellipse cx="605.0" cy="414.0" rx="13.1" ry="7.7" fill="#0a0d11" opacity=".62"/><ellipse cx="685.0" cy="412.0" rx="16.0" ry="9.9" fill="#6b7078" opacity=".85"/><ellipse cx="685.0" cy="414.0" rx="13.1" ry="7.7" fill="#0a0d11" opacity=".62"/><ellipse cx="765.0" cy="412.0" rx="22.0" ry="13.6" fill="#6b7078" opacity=".85"/><ellipse cx="765.0" cy="414.0" rx="18.0" ry="10.6" fill="#0a0d11" opacity=".62"/><ellipse cx="335.0" cy="376.0" rx="16.0" ry="9.9" fill="#6b7078" opacity=".85"/><ellipse cx="335.0" cy="378.0" rx="13.1" ry="7.7" fill="#0a0d11" opacity=".62"/><ellipse cx="415.0" cy="376.0" rx="16.0" ry="9.9" fill="#6b7078" opacity=".85"/><ellipse cx="415.0" cy="378.0" rx="13.1" ry="7.7" fill="#0a0d11" opacity=".62"/><ellipse cx="495.0" cy="376.0" rx="22.0" ry="13.6" fill="#6b7078" opacity=".85"/><ellipse cx="495.0" cy="378.0" rx="18.0" ry="10.6" fill="#0a0d11" opacity=".62"/><ellipse cx="575.0" cy="376.0" rx="16.0" ry="9.9" fill="#6b7078" opacity=".85"/><ellipse cx="575.0" cy="378.0" rx="13.1" ry="7.7" fill="#0a0d11" opacity=".62"/><ellipse cx="655.0" cy="376.0" rx="16.0" ry="9.9" fill="#6b7078" opacity=".85"/><ellipse cx="655.0" cy="378.0" rx="13.1" ry="7.7" fill="#0a0d11" opacity=".62"/><ellipse cx="735.0" cy="376.0" rx="22.0" ry="13.6" fill="#6b7078" opacity=".85"/><ellipse cx="735.0" cy="378.0" rx="18.0" ry="10.6" fill="#0a0d11" opacity=".62"/><ellipse cx="815.0" cy="376.0" rx="16.0" ry="9.9" fill="#6b7078" opacity=".85"/><ellipse cx="815.0" cy="378.0" rx="13.1" ry="7.7" fill="#0a0d11" opacity=".62"/><ellipse cx="385.0" cy="340.0" rx="16.0" ry="9.9" fill="#6b7078" opacity=".85"/><ellipse cx="385.0" cy="342.0" rx="13.1" ry="7.7" fill="#0a0d11" opacity=".62"/><ellipse cx="465.0" cy="340.0" rx="22.0" ry="13.6" fill="#6b7078" opacity=".85"/><ellipse cx="465.0" cy="342.0" rx="18.0" ry="10.6" fill="#0a0d11" opacity=".62"/><ellipse cx="545.0" cy="340.0" rx="16.0" ry="9.9" fill="#6b7078" opacity=".85"/><ellipse cx="545.0" cy="342.0" rx="13.1" ry="7.7" fill="#0a0d11" opacity=".62"/><ellipse cx="625.0" cy="340.0" rx="16.0" ry="9.9" fill="#6b7078" opacity=".85"/><ellipse cx="625.0" cy="342.0" rx="13.1" ry="7.7" fill="#0a0d11" opacity=".62"/><ellipse cx="705.0" cy="340.0" rx="22.0" ry="13.6" fill="#6b7078" opacity=".85"/><ellipse cx="705.0" cy="342.0" rx="18.0" ry="10.6" fill="#0a0d11" opacity=".62"/><ellipse cx="785.0" cy="340.0" rx="16.0" ry="9.9" fill="#6b7078" opacity=".85"/><ellipse cx="785.0" cy="342.0" rx="13.1" ry="7.7" fill="#0a0d11" opacity=".62"/><ellipse cx="865.0" cy="340.0" rx="16.0" ry="9.9" fill="#6b7078" opacity=".85"/><ellipse cx="865.0" cy="342.0" rx="13.1" ry="7.7" fill="#0a0d11" opacity=".62"/><ellipse cx="575.0" cy="376.0" rx="80" ry="43" fill="#4a4f56" opacity=".55"/><ellipse cx="575.0" cy="378.0" rx="74" ry="38" fill="#0a0d11" opacity=".45"/><path d="M 220.0 430.0 L 780.0 430.0 L 780.0 450.0 L 220.0 450.0 Z" fill="url(#mabel-neck-plate-pl-e-4)"/><path d="M 780.0 430.0 L 930.0 322.0 L 930.0 342.0 L 780.0 450.0 Z" fill="#4a4f56"/><path d="M 220.0 450.0 L 780.0 450.0 L 780.0 618.0 L 220.0 618.0 Z" fill="url(#mabel-neck-plate-pl-b-5)"/><path d="M 780.0 450.0 L 799.5 436.0 L 799.5 604.0 L 780.0 618.0 Z" fill="#4a4f56" opacity=".92"/><path d="M 220.0 450.0 L 780.0 450.0" fill="none" stroke="#ffffff" stroke-opacity="0.55" stroke-width="2.6" stroke-linecap="round"/><circle cx="304.0" cy="534.0" r="21" fill="#0a0d11" opacity=".62"/><circle cx="304.0" cy="532.0" r="21" fill="none" stroke="#e6e9ec" stroke-opacity=".40" stroke-width="2"/><circle cx="435.6" cy="534.0" r="21" fill="#0a0d11" opacity=".62"/><circle cx="435.6" cy="532.0" r="21" fill="none" stroke="#e6e9ec" stroke-opacity=".40" stroke-width="2"/><circle cx="567.2" cy="534.0" r="21" fill="#0a0d11" opacity=".62"/><circle cx="567.2" cy="532.0" r="21" fill="none" stroke="#e6e9ec" stroke-opacity=".40" stroke-width="2"/><circle cx="698.8" cy="534.0" r="21" fill="#0a0d11" opacity=".62"/><circle cx="698.8" cy="532.0" r="21" fill="none" stroke="#e6e9ec" stroke-opacity=".40" stroke-width="2"/><rect x="232.0" y="458.0" width="145.6" height="152.0" rx="6.0" fill="url(#mabel-neck-plate-sheen-6)"/><path d="M 220.0 430.0 L 370.0 322.0" fill="none" stroke="#ffffff" stroke-opacity="0.6" stroke-width="2.2" stroke-linecap="round"/><rect x="244.0" y="330.0" width="156.8" height="118.0" rx="6.0" fill="url(#mabel-neck-plate-sheen-7)"/></g></svg>