<svg xmlns="http://www.w3.org/2000/svg" viewBox="0 0 1000 1000" role="img" aria-label="Dyneema Tendon Line — SK99, 0.8 mm, 25 m" preserveAspectRatio="xMidYMid meet"><title>Dyneema Tendon Line — SK99, 0.8 mm, 25 m</title><defs><radialGradient id="tendon-dyneema-gnd-1" cx="0.5" cy="0.5" r="0.5"><stop offset="0.0000" stop-color="#0b0f14" stop-opacity="0.2"/><stop offset="0.5500" stop-color="#0b0f14" stop-opacity="0.09000000000000001"/><stop offset="1.0000" stop-color="#0b0f14" stop-opacity="0.0"/></radialGradient><filter id="tendon-dyneema-bl-2" x="-60%" y="-60%" width="220%" height="220%"><feGaussianBlur stdDeviation="14.3"/></filter><linearGradient id="tendon-dyneema-top-3" x1="0" y1="0" x2="0.4" y2="1"><stop offset="0.0000" stop-color="#e6e9ec"/><stop offset="1.0000" stop-color="#b8bdc4"/></linearGradient><linearGradient id="tendon-dyneema-side-4" x1="0" y1="0" x2="1" y2="0.2"><stop offset="0.0000" stop-color="#6b7078"/><stop offset="1.0000" stop-color="#4a4f56"/></linearGradient><linearGradient id="tendon-dyneema-face-5" x1="0" y1="0" x2="0.35" y2="1"><stop offset="0.0000" stop-color="#b8bdc4"/><stop offset="0.4500" stop-color="#8f959d"/><stop offset="1.0000" stop-color="#6b7078"/></linearGradient><linearGradient id="tendon-dyneema-top-6" x1="0" y1="0" x2="0.4" y2="1"><stop offset="0.0000" stop-color="#e6e9ec"/><stop offset="1.0000" stop-color="#b8bdc4"/></linearGradient><linearGradient id="tendon-dyneema-side-7" x1="0" y1="0" x2="1" y2="0.2"><stop offset="0.0000" stop-color="#6b7078"/><stop offset="1.0000" stop-color="#4a4f56"/></linearGradient><linearGradient id="tendon-dyneema-face-8" x1="0" y1="0" x2="0.35" y2="1"><stop offset="0.0000" stop-color="#b8bdc4"/><stop offset="0.4500" stop-color="#8f959d"/><stop offset="1.0000" stop-color="#6b7078"/></linearGradient></defs><g transform="translate(500.0 520.0) scale(1.15) translate(-500.0 -520.0)"><ellipse cx="500.0" cy="790.0" rx="260.0" ry="40.0" fill="url(#tendon-dyneema-gnd-1)" filter="url(#tendon-dyneema-bl-2)"/><ellipse cx="500.0" cy="500.0" rx="250.0" ry="105.0" fill="none" stroke="#b8bcc2" stroke-width="26"/><ellipse cx="500.0" cy="500.0" rx="250.0" ry="105.0" fill="none" stroke="#e9ecef" stroke-width="17"/><ellipse cx="500.0" cy="496.0" rx="250.0" ry="105.0" fill="none" stroke="#ffffff" stroke-opacity=".28" stroke-width="5"/><ellipse cx="500.0" cy="514.0" rx="224.0" ry="94.1" fill="none" stroke="#b8bcc2" stroke-width="26"/><ellipse cx="500.0" cy="514.0" rx="224.0" ry="94.1" fill="none" stroke="#e9ecef" stroke-width="17"/><ellipse cx="500.0" cy="510.0" rx="224.0" ry="94.1" fill="none" stroke="#ffffff" stroke-opacity=".28" stroke-width="5"/><ellipse cx="500.0" cy="528.0" rx="198.0" ry="83.2" fill="none" stroke="#b8bcc2" stroke-width="26"/><ellipse cx="500.0" cy="528.0" rx="198.0" ry="83.2" fill="none" stroke="#e9ecef" stroke-width="17"/><ellipse cx="500.0" cy="524.0" rx="198.0" ry="83.2" fill="none" stroke="#ffffff" stroke-opacity=".28" stroke-width="5"/><ellipse cx="500.0" cy="542.0" rx="172.0" ry="72.2" fill="none" stroke="#b8bcc2" stroke-width="26"/><ellipse cx="500.0" cy="542.0" rx="172.0" ry="72.2" fill="none" stroke="#e9ecef" stroke-width="17"/><ellipse cx="500.0" cy="538.0" rx="172.0" ry="72.2" fill="none" stroke="#ffffff" stroke-opacity=".28" stroke-width="5"/><ellipse cx="500.0" cy="556.0" rx="146.0" ry="61.3" fill="none" stroke="#b8bcc2" stroke-width="26"/><ellipse cx="500.0" cy="556.0" rx="146.0" ry="61.3" fill="none" stroke="#e9ecef" stroke-width="17"/><ellipse cx="500.0" cy="552.0" rx="146.0" ry="61.3" fill="none" stroke="#ffffff" stroke-opacity=".28" stroke-width="5"/><path d="M 146.0 300.0 L 163.7 280.3 L 271.7 280.3 L 254.0 300.0 Z" fill="url(#tendon-dyneema-top-3)"/><path d="M 254.0 300.0 L 271.7 280.3 L 271.7 400.3 L 254.0 420.0 Z" fill="url(#tendon-dyneema-side-4)"/><rect x="146.0" y="300.0" width="108.0" height="120.0" rx="12.0" fill="url(#tendon-dyneema-face-5)"/><path d="M 158.0 300.0 L 242.0 300.0" fill="none" stroke="#e6e9ec" stroke-opacity="0.55" stroke-width="2.0" stroke-linecap="round"/><rect x="162.0" y="316.0" width="76" height="46" rx="6" fill="#0a0d11" opacity=".8"/><rect x="170.0" y="324.0" width="9" height="30" rx="2" fill="#e0bb60" opacity=".8"/><rect x="187.0" y="324.0" width="9" height="30" rx="2" fill="#e0bb60" opacity=".8"/><rect x="204.0" y="324.0" width="9" height="30" rx="2" fill="#e0bb60" opacity=".8"/><rect x="221.0" y="324.0" width="9" height="30" rx="2" fill="#e0bb60" opacity=".8"/><path d="M 746.0 300.0 L 763.7 280.3 L 871.7 280.3 L 854.0 300.0 Z" fill="url(#tendon-dyneema-top-6)"/><path d="M 854.0 300.0 L 871.7 280.3 L 871.7 400.3 L 854.0 420.0 Z" fill="url(#tendon-dyneema-side-7)"/><rect x="746.0" y="300.0" width="108.0" height="120.0" rx="12.0" fill="url(#tendon-dyneema-face-8)"/><path d="M 758.0 300.0 L 842.0 300.0" fill="none" stroke="#e6e9ec" stroke-opacity="0.55" stroke-width="2.0" stroke-linecap="round"/><rect x="762.0" y="316.0" width="76" height="46" rx="6" fill="#0a0d11" opacity=".8"/><rect x="770.0" y="324.0" width="9" height="30" rx="2" fill="#e0bb60" opacity=".8"/><rect x="787.0" y="324.0" width="9" height="30" rx="2" fill="#e0bb60" opacity=".8"/><rect x="804.0" y="324.0" width="9" height="30" rx="2" fill="#e0bb60" opacity=".8"/><rect x="821.0" y="324.0" width="9" height="30" rx="2" fill="#e0bb60" opacity=".8"/></g></svg>