<svg xmlns="http://www.w3.org/2000/svg" viewBox="0 0 1000 1000" role="img" aria-label="Xiaomi CyberGear RS-03 — High-torque CyberGear, 60 N·m peak" preserveAspectRatio="xMidYMid meet"><title>Xiaomi CyberGear RS-03 — High-torque CyberGear, 60 N·m peak</title><defs><radialGradient id="xiaomi-cybergear-rs03-gnd-1" cx="0.5" cy="0.5" r="0.5"><stop offset="0.0000" stop-color="#0b0f14" stop-opacity="0.2"/><stop offset="0.5500" stop-color="#0b0f14" stop-opacity="0.09000000000000001"/><stop offset="1.0000" stop-color="#0b0f14" stop-opacity="0.0"/></radialGradient><filter id="xiaomi-cybergear-rs03-bl-2" x="-60%" y="-60%" width="220%" height="220%"><feGaussianBlur stdDeviation="13.2"/></filter><linearGradient id="xiaomi-cybergear-rs03-body-3" x1="0" y1="0" x2="1" y2="0"><stop offset="0.0000" stop-color="#d3d7dc"/><stop offset="0.1000" stop-color="#e9ecef"/><stop offset="0.2600" stop-color="#f7f8fa"/><stop offset="0.3400" stop-color="#ffffff"/><stop offset="0.4200" stop-color="#f7f8fa"/><stop offset="0.6200" stop-color="#e9ecef"/><stop offset="0.8600" stop-color="#d3d7dc"/><stop offset="1.0000" stop-color="#b8bcc2"/></linearGradient><linearGradient id="xiaomi-cybergear-rs03-bsh-4" x1="0" y1="0" x2="0" y2="1"><stop offset="0.0000" stop-color="#000" stop-opacity="0.0"/><stop offset="1.0000" stop-color="#000" stop-opacity="0.3"/></linearGradient><radialGradient id="xiaomi-cybergear-rs03-cap-5" cx="0.36" cy="0.3" r="0.78"><stop offset="0.0000" stop-color="#ffffff"/><stop offset="0.3400" stop-color="#f7f8fa"/><stop offset="0.7200" stop-color="#e9ecef"/><stop offset="1.0000" stop-color="#d3d7dc"/></radialGradient><linearGradient id="xiaomi-cybergear-rs03-ring-6" x1="0" y1="0" x2="1" y2="0"><stop offset="0.0000" stop-color="#6b7078"/><stop offset="0.1000" stop-color="#8f959d"/><stop offset="0.2600" stop-color="#b8bdc4"/><stop offset="0.3400" stop-color="#e6e9ec"/><stop offset="0.4200" stop-color="#b8bdc4"/><stop offset="0.6200" stop-color="#8f959d"/><stop offset="0.8600" stop-color="#6b7078"/><stop offset="1.0000" stop-color="#4a4f56"/></linearGradient><radialGradient id="xiaomi-cybergear-rs03-disc-7" cx="0.36" cy="0.3" r="0.78"><stop offset="0.0000" stop-color="#ffffff"/><stop offset="0.3400" stop-color="#eef0f2"/><stop offset="0.7200" stop-color="#d6dade"/><stop offset="1.0000" stop-color="#b3b9c1"/></radialGradient><linearGradient id="xiaomi-cybergear-rs03-sheen-8" x1="0" y1="0" x2="1" y2="1"><stop offset="0.0000" stop-color="#ffffff" stop-opacity="0.0"/><stop offset="0.3800" stop-color="#ffffff" stop-opacity="0.34"/><stop offset="0.5200" stop-color="#ffffff" stop-opacity="0.17"/><stop offset="1.0000" stop-color="#ffffff" stop-opacity="0.0"/></linearGradient></defs><g transform="translate(500.0 520.0) scale(1.15) translate(-500.0 -520.0)"><ellipse cx="500.0" cy="657.0" rx="240.0" ry="56.0" fill="url(#xiaomi-cybergear-rs03-gnd-1)" filter="url(#xiaomi-cybergear-rs03-bl-2)"/><path d="M 300.0 375.0 L 300.0 605.0 A 200.0 52.0 0 0 0 700.0 605.0 L 700.0 375.0 Z" fill="url(#xiaomi-cybergear-rs03-body-3)"/><path d="M 300.0 536.0 L 300.0 605.0 A 200.0 52.0 0 0 0 700.0 605.0 L 700.0 536.0 Z" fill="url(#xiaomi-cybergear-rs03-bsh-4)"/><ellipse cx="500.0" cy="375.0" rx="200.0" ry="52.0" fill="url(#xiaomi-cybergear-rs03-cap-5)"/><ellipse cx="500.0" cy="375.0" rx="200.0" ry="52.0" fill="none" stroke="#ffffff" stroke-opacity="0.55" stroke-width="1.6"/><path d="M 300.0 508.4 L 300.0 538.3 A 200.0 52.0 0 0 0 700.0 538.3 L 700.0 508.4 A 200.0 52.0 0 0 1 300.0 508.4 Z" fill="url(#xiaomi-cybergear-rs03-ring-6)" opacity="1.0"/><ellipse cx="500.0" cy="375.0" rx="156.0" ry="40.6" fill="url(#xiaomi-cybergear-rs03-disc-7)"/><ellipse cx="608.0" cy="375.0" rx="9.0" ry="5.6" fill="#4a4f56" opacity="0.85"/><ellipse cx="608.0" cy="373.8" rx="5.9" ry="3.6" fill="#05070a" opacity="0.75"/><ellipse cx="554.0" cy="399.3" rx="9.0" ry="5.6" fill="#4a4f56" opacity="0.85"/><ellipse cx="554.0" cy="398.1" rx="5.9" ry="3.6" fill="#05070a" opacity="0.75"/><ellipse cx="446.0" cy="399.3" rx="9.0" ry="5.6" fill="#4a4f56" opacity="0.85"/><ellipse cx="446.0" cy="398.1" rx="5.9" ry="3.6" fill="#05070a" opacity="0.75"/><ellipse cx="392.0" cy="375.0" rx="9.0" ry="5.6" fill="#4a4f56" opacity="0.85"/><ellipse cx="392.0" cy="373.8" rx="5.9" ry="3.6" fill="#05070a" opacity="0.75"/><ellipse cx="446.0" cy="350.7" rx="9.0" ry="5.6" fill="#4a4f56" opacity="0.85"/><ellipse cx="446.0" cy="349.5" rx="5.9" ry="3.6" fill="#05070a" opacity="0.75"/><ellipse cx="554.0" cy="350.7" rx="9.0" ry="5.6" fill="#4a4f56" opacity="0.85"/><ellipse cx="554.0" cy="349.5" rx="5.9" ry="3.6" fill="#05070a" opacity="0.75"/><ellipse cx="500.0" cy="375.0" rx="40.0" ry="10.4" fill="#0d1014" opacity=".9"/><rect x="340.0" y="398.0" width="72.0" height="170.2" rx="8.0" fill="url(#xiaomi-cybergear-rs03-sheen-8)"/><path d="M 640.0 554.4 C 688.6 562.5 699.4 626.9 748.0 635.0 C 733.6 643.2 730.4 708.8 716.0 717.0" fill="none" stroke="#0e0f11" stroke-width="11.0" stroke-linecap="round"/><path d="M 640.0 554.4 C 688.6 562.5 699.4 626.9 748.0 635.0 C 733.6 643.2 730.4 708.8 716.0 717.0" fill="none" stroke="#2b2e33" stroke-width="7.3" stroke-linecap="round"/><path d="M 640.0 554.4 C 688.6 562.5 699.4 626.9 748.0 635.0 C 733.6 643.2 730.4 708.8 716.0 717.0" fill="none" stroke="#6d727a" stroke-opacity="0.45" stroke-width="2.2" stroke-linecap="round" transform="translate(-1.8,-2.0)"/></g></svg>